<?xml version="1.0"?>
<svg xmlns="http://www.w3.org/2000/svg" xmlns:xlink="http://www.w3.org/1999/xlink" xmlns:svgjs="http://svgjs.com/svgjs" version="1.1" width="512" height="512" x="0" y="0" viewBox="0 0 91.521 91.521" style="enable-background:new 0 0 512 512" xml:space="preserve" class=""><g>
<g xmlns="http://www.w3.org/2000/svg">
	<path d="M54.634,20.736c-14.007,0-25.403,11.396-25.403,25.404s11.396,25.403,25.403,25.403c14.008,0,25.404-11.396,25.404-25.403   S68.642,20.736,54.634,20.736z M54.634,68.668c-12.421,0-22.526-10.106-22.526-22.528s10.105-22.528,22.526-22.528V68.668z    M56.046,78.049v12.209c0,0.697-0.565,1.264-1.262,1.264c-0.699,0-1.265-0.564-1.265-1.264V78.049c0-0.698,0.566-1.264,1.265-1.264   S56.046,77.351,56.046,78.049z M36.626,70.617c0.564,0.412,0.689,1.201,0.279,1.766l-7.177,9.878   c-0.246,0.341-0.631,0.521-1.021,0.521c-0.258,0-0.518-0.078-0.742-0.24c-0.564-0.41-0.689-1.201-0.279-1.766l7.178-9.877   C35.273,70.335,36.064,70.209,36.626,70.617z M25.562,54.957c0.215,0.664-0.148,1.376-0.811,1.593l-11.613,3.772   c-0.131,0.041-0.262,0.062-0.391,0.062c-0.533,0-1.027-0.339-1.201-0.873c-0.217-0.663,0.148-1.376,0.811-1.592l11.613-3.773   C24.634,53.933,25.345,54.295,25.562,54.957z M25.816,35.783c-0.174,0.533-0.67,0.873-1.201,0.873   c-0.129,0-0.262-0.021-0.391-0.063l-11.613-3.772c-0.662-0.215-1.025-0.927-0.811-1.591c0.217-0.663,0.93-1.024,1.592-0.812   l11.613,3.773C25.667,34.408,26.031,35.119,25.816,35.783z M28.349,10.263c-0.41-0.565-0.285-1.354,0.281-1.764   c0.563-0.41,1.354-0.285,1.764,0.278l7.178,9.879c0.408,0.563,0.285,1.354-0.281,1.764c-0.225,0.163-0.484,0.24-0.74,0.24   c-0.391,0-0.777-0.18-1.023-0.52L28.349,10.263z M54.341,13.473V1.264C54.341,0.566,54.907,0,55.605,0s1.264,0.565,1.264,1.264   v12.209c0,0.697-0.564,1.264-1.264,1.264C54.907,14.737,54.341,14.17,54.341,13.473z" fill="#535658" data-original="#000000" style=""/>
</g>
<g xmlns="http://www.w3.org/2000/svg">
</g>
<g xmlns="http://www.w3.org/2000/svg">
</g>
<g xmlns="http://www.w3.org/2000/svg">
</g>
<g xmlns="http://www.w3.org/2000/svg">
</g>
<g xmlns="http://www.w3.org/2000/svg">
</g>
<g xmlns="http://www.w3.org/2000/svg">
</g>
<g xmlns="http://www.w3.org/2000/svg">
</g>
<g xmlns="http://www.w3.org/2000/svg">
</g>
<g xmlns="http://www.w3.org/2000/svg">
</g>
<g xmlns="http://www.w3.org/2000/svg">
</g>
<g xmlns="http://www.w3.org/2000/svg">
</g>
<g xmlns="http://www.w3.org/2000/svg">
</g>
<g xmlns="http://www.w3.org/2000/svg">
</g>
<g xmlns="http://www.w3.org/2000/svg">
</g>
<g xmlns="http://www.w3.org/2000/svg">
</g>
</g></svg>
