<?xml version="1.0" encoding="utf-8"?>
<!-- Generator: Adobe Illustrator 16.0.0, SVG Export Plug-In . SVG Version: 6.00 Build 0)  -->
<!DOCTYPE svg PUBLIC "-//W3C//DTD SVG 1.1//EN" "http://www.w3.org/Graphics/SVG/1.1/DTD/svg11.dtd">
<svg version="1.1" id="Layer_1" xmlns:svgjs="http://svgjs.com/svgjs"
	 xmlns="http://www.w3.org/2000/svg" xmlns:xlink="http://www.w3.org/1999/xlink" x="0px" y="0px" width="512px" height="512px"
	 viewBox="0 0 512 512" enable-background="new 0 0 512 512" xml:space="preserve">
<path fill="#3D3E3E" d="M55.286,111.434l41.767,20.279l193.85-97.533c1.406-0.719,2.291-2.245,2.267-3.902
	c-0.024-1.66-0.955-3.151-2.384-3.824l-34.164-16.089c-1.032-0.486-2.211-0.486-3.246,0L55.327,103.672
	c-1.441,0.68-2.373,2.192-2.382,3.867C52.936,109.213,53.852,110.738,55.286,111.434z"/>
<path fill="#3D3E3E" d="M232.801,235.541l-74.373-36.491v111.402c0,1.04-0.504,2.012-1.336,2.57
	c-0.464,0.313-0.995,0.469-1.525,0.469c-0.421,0-0.842-0.1-1.235-0.296l-78.821-39.671c-0.995-0.507-1.626-1.572-1.626-2.743
	V158.635l-45.803-22.512c-1.24-0.603-2.683-0.494-3.831,0.29c-1.147,0.784-1.84,2.133-1.84,3.58v253.822
	c0,1.668,0.915,3.18,2.34,3.873l204.721,99.426c0.531,0.257,1.099,0.383,1.665,0.383c0.756,0,1.508-0.229,2.165-0.675
	c1.146-0.784,1.84-2.133,1.84-3.581V239.412C235.143,237.748,234.228,236.234,232.801,235.541z"/>
<path fill="#3D3E3E" d="M485.749,146.415c-1.146-0.783-2.591-0.89-3.83-0.289l-204.71,99.416c-1.426,0.693-2.34,2.206-2.34,3.873
	v253.832c0,1.448,0.693,2.799,1.84,3.58c0.654,0.446,1.408,0.675,2.166,0.675c0.566,0,1.133-0.127,1.664-0.383l204.71-99.426
	c1.426-0.691,2.34-2.205,2.34-3.873V149.996C487.591,148.548,486.896,147.198,485.749,146.415z"/>
<path fill="#3D3E3E" d="M457.066,107.539c-0.011-1.674-0.942-3.187-2.383-3.867l-68.873-32.442
	c-1.074-0.509-2.305-0.485-3.363,0.055L183.599,172.198l69.733,35.405c0.529,0.257,1.096,0.384,1.665,0.384s1.136-0.127,1.665-0.384
	l198.061-96.172C456.158,110.738,457.075,109.213,457.066,107.539z"/>
</svg>
