<?xml version="1.0" encoding="utf-8"?>
<!-- Generator: Adobe Illustrator 24.0.3, SVG Export Plug-In . SVG Version: 6.00 Build 0)  -->
<svg version="1.1" id="Logo" xmlns="http://www.w3.org/2000/svg" xmlns:xlink="http://www.w3.org/1999/xlink" x="0px" y="0px"
	 viewBox="0 0 601 204.5" style="enable-background:new 0 0 601 204.5;" xml:space="preserve">
<style type="text/css">
	.st0{fill:#FF3A00;}
</style>
<path id="Wordmark" class="st0" d="M330.2,101.7l65.2,98h-60.6l-36.4-57.8l-36.7,57.8h-59.3l65.2-97.1l-62.4-94h60.6l33.4,53.8
	l34.2-53.8h59.3L330.2,101.7z M114,4.8c-58.7,0-102.2,43.7-102.2,99.3v0.5c0,57.8,44,98.8,103.3,98.8c34.8,0,62.5-12.8,82.6-29.7V88
	h-68.5l-26.5,38.7h45V150c-7.6,5.2-17.4,7.9-30.4,7.9c-30.2,0-51.7-22.1-51.7-53.2v-0.5c0-29.2,21.2-52.1,48.7-52.1
	c13.2,0,23.7,3.2,33.4,9l27.6-40.3C158.6,10.5,139,4.8,114,4.8z M587.8,103.6v0.5c0,54.8-43.1,99.3-100.5,99.3s-100-43.9-100-98.8
	v-0.5c0-54.8,43.1-99.3,100.5-99.3C545.2,4.8,587.8,48.8,587.8,103.6z M534.9,104.1c0-27.8-19.1-51.6-47.6-51.6
	c-28.4,0-47.3,23.5-47.3,51v0.5c0,27.6,19.4,51.6,47.9,51.6c28.2,0,47-23.5,47-51V104.1z"/>
</svg>
