<svg xmlns="http://www.w3.org/2000/svg" width="121.169" height="17.046" viewBox="0 0 121.169 17.046">  <g id="Group_1" data-name="Group 1" transform="translate(-649 -553.225)">    <g id="powered-by_1_" data-name="powered-by (1)" transform="translate(648.845 554.284)">      <path id="Path_1" data-name="Path 1" d="M1.468,9.1V13H.155V3.047H3.826a3.686,3.686,0,0,1,2.56.834,2.826,2.826,0,0,1,.926,2.208,2.79,2.79,0,0,1-.905,2.232,3.854,3.854,0,0,1-2.6.783H1.469Zm0-1.074H3.826a2.36,2.36,0,0,0,1.613-.495A1.809,1.809,0,0,0,6,6.1a1.871,1.871,0,0,0-.56-1.422A2.213,2.213,0,0,0,3.9,4.127H1.468Zm6.986,1.2a4.382,4.382,0,0,1,.427-1.955,3.187,3.187,0,0,1,1.19-1.34,3.241,3.241,0,0,1,1.74-.471,3.115,3.115,0,0,1,2.443,1.046A4.023,4.023,0,0,1,15.188,9.3v.089a4.4,4.4,0,0,1-.414,1.938,3.14,3.14,0,0,1-1.183,1.336,3.263,3.263,0,0,1-1.767.479,3.113,3.113,0,0,1-2.437-1.046,4,4,0,0,1-.933-2.769V9.233Zm1.272.15a3.166,3.166,0,0,0,.57,1.976,1.935,1.935,0,0,0,3.059-.01,3.455,3.455,0,0,0,.568-2.116,3.162,3.162,0,0,0-.578-1.972,1.836,1.836,0,0,0-1.534-.755,1.815,1.815,0,0,0-1.511.745,3.435,3.435,0,0,0-.574,2.133Zm13.6,1.874L24.744,5.6h1.265L23.855,13H22.83l-1.8-5.605L19.282,13H18.257L16.11,5.6h1.258l1.456,5.537L20.547,5.6h1.018l1.757,5.653Zm7.041,1.88a3.234,3.234,0,0,1-2.447-.988,3.668,3.668,0,0,1-.943-2.642V9.274a4.444,4.444,0,0,1,.42-1.965,3.28,3.28,0,0,1,1.176-1.353,2.956,2.956,0,0,1,1.637-.49,2.771,2.771,0,0,1,2.242.951,4.113,4.113,0,0,1,.8,2.72v.527h-5.01a2.625,2.625,0,0,0,.638,1.767,2.01,2.01,0,0,0,1.556.673,2.192,2.192,0,0,0,1.134-.273,2.853,2.853,0,0,0,.814-.725l.772.6a3.108,3.108,0,0,1-2.789,1.429Zm-.157-6.631a1.688,1.688,0,0,0-1.285.557,2.715,2.715,0,0,0-.643,1.562h3.7v-.1a2.4,2.4,0,0,0-.52-1.493,1.582,1.582,0,0,0-1.257-.53Zm8.08.232a3.79,3.79,0,0,0-.622-.048,1.666,1.666,0,0,0-1.688,1.06V13H34.71V5.6h1.23l.02.854a1.974,1.974,0,0,1,1.765-.991,1.284,1.284,0,0,1,.56.1V6.738Zm4.232,6.4a3.235,3.235,0,0,1-2.448-.988,3.668,3.668,0,0,1-.943-2.642V9.274a4.444,4.444,0,0,1,.42-1.965,3.28,3.28,0,0,1,1.176-1.353,2.956,2.956,0,0,1,1.637-.49,2.773,2.773,0,0,1,2.243.951,4.113,4.113,0,0,1,.8,2.72v.527H40.392a2.621,2.621,0,0,0,.639,1.767,2.008,2.008,0,0,0,1.555.673,2.2,2.2,0,0,0,1.135-.273,2.85,2.85,0,0,0,.813-.725l.773.6a3.109,3.109,0,0,1-2.79,1.429ZM42.36,6.506a1.689,1.689,0,0,0-1.285.557,2.708,2.708,0,0,0-.642,1.562h3.7v-.1a2.41,2.41,0,0,0-.52-1.493,1.586,1.586,0,0,0-1.258-.53Zm4.2,2.734A4.333,4.333,0,0,1,47.364,6.5a2.746,2.746,0,0,1,4.17-.147V2.5H52.8V13H51.638l-.062-.793a2.575,2.575,0,0,1-2.112.93,2.525,2.525,0,0,1-2.1-1.053,4.383,4.383,0,0,1-.81-2.748v-.1Zm1.264.144a3.278,3.278,0,0,0,.52,1.969,1.681,1.681,0,0,0,1.435.71,1.845,1.845,0,0,0,1.757-1.08v-3.4A1.86,1.86,0,0,0,49.791,6.54a1.691,1.691,0,0,0-1.45.718,3.614,3.614,0,0,0-.519,2.126Zm16.666,0a4.4,4.4,0,0,1-.779,2.724,2.491,2.491,0,0,1-2.092,1.029,2.579,2.579,0,0,1-2.167-.991L59.39,13H58.228V2.5h1.264V6.417a2.565,2.565,0,0,1,2.113-.95A2.506,2.506,0,0,1,63.72,6.485a4.534,4.534,0,0,1,.77,2.79v.109ZM63.224,9.24a3.416,3.416,0,0,0-.5-2,1.648,1.648,0,0,0-1.435-.7,1.857,1.857,0,0,0-1.8,1.162v3.2A1.909,1.909,0,0,0,61.3,12.063a1.641,1.641,0,0,0,1.415-.7,3.633,3.633,0,0,0,.506-2.119ZM68.5,11.147,70.224,5.6h1.353L68.6,14.142q-.69,1.845-2.195,1.845l-.24-.02-.47-.09V14.853l.341.027a1.688,1.688,0,0,0,1-.26,1.874,1.874,0,0,0,.59-.95l.281-.752L65.274,5.6h1.381L68.5,11.147Z" fill="#6f6f6f" fill-rule="evenodd"/>    </g>    <path id="Wordmark" d="M25.008,7.607,30.131,15.3h-4.76l-2.86-4.542L19.629,15.3H14.976L20.1,7.672,15.189.3h4.76l2.626,4.221L25.264.3h4.653ZM8.026,0A7.766,7.766,0,0,0,0,7.8v.043C0,12.385,3.458,15.6,8.111,15.6A9.93,9.93,0,0,0,14.6,13.264V6.536H9.22L7.139,9.578h3.534V11.4a4.115,4.115,0,0,1-2.391.621A3.96,3.96,0,0,1,4.227,7.843V7.8A3.915,3.915,0,0,1,8.048,3.707a4.913,4.913,0,0,1,2.626.7l2.167-3.166A8.917,8.917,0,0,0,8.026,0Zm37.2,7.757V7.8a7.871,7.871,0,0,1-15.74.043V7.8a7.871,7.871,0,0,1,15.74-.043ZM41.076,7.8A3.825,3.825,0,0,0,37.339,3.75a3.784,3.784,0,0,0-3.716,4.007V7.8a3.854,3.854,0,0,0,3.758,4.049,3.78,3.78,0,0,0,3.695-4.007Z" transform="translate(724.938 553.225)" fill="#ff3a00"/>  </g></svg>