<?xml version="1.0" encoding="utf-8"?>
<!-- Generator: Adobe Illustrator 24.0.3, SVG Export Plug-In . SVG Version: 6.00 Build 0)  -->
<svg version="1.1" id="Layer_1" xmlns="http://www.w3.org/2000/svg" xmlns:xlink="http://www.w3.org/1999/xlink" x="0px" y="0px"
	 viewBox="0 0 238.4 70.7" style="enable-background:new 0 0 238.4 70.7;" xml:space="preserve">
<style type="text/css">
	.st0{display:none;}
	.st1{display:inline;fill:#1C1C1C;}
	.st2{display:inline;}
	.st3{font-family:'AvenirNextWorld-Bold';}
	.st4{font-size:93.9666px;}
	.st5{enable-background:new    ;}
</style>
<g id="Logo" class="st0">
	<title>GXO_CMx long</title>
	<path class="st1" d="M17.6,66.2c-5.4-2.9-9.9-7.3-12.9-12.6C1.5,48-0.1,41.7,0,35.2c-0.1-6.5,1.5-12.9,4.8-18.5
		c3.1-5.3,7.6-9.5,13.1-12.3C23.6,1.4,30-0.1,36.4,0c4.8,0,9.6,0.9,14.2,2.6c4.2,1.5,7.9,4,10.9,7.2l-11,11c-1.5-2-3.5-3.6-5.8-4.6
		c-2.4-1-5.1-1.6-7.7-1.6c-3.5-0.1-7,0.9-10,2.6c-2.9,1.8-5.3,4.3-6.9,7.3c-1.7,3.3-2.5,6.9-2.5,10.6C17.5,39,18.4,42.6,20,46
		c1.5,3,3.9,5.5,6.8,7.2c3,1.8,6.4,2.7,9.9,2.6c2.9,0,5.7-0.6,8.3-1.8c2.3-1.1,4.4-2.9,5.9-5l11.3,10.6c-3.1,3.6-6.9,6.4-11.2,8.2
		c-4.7,2-9.8,3-14.9,2.9C29.7,70.8,23.3,69.2,17.6,66.2z"/>
	<path class="st1" d="M84.3,68.9H69.1V1.8h23l15.2,43h0.4l14.6-43h23.4v67.1h-15.8l0.4-47.5H130l-17.4,47.5h-11.4l-17-47.5h-0.3
		L84.3,68.9z"/>
	<path class="st1" d="M170.4,68.9h-18L171.2,44l-17-22.6h18.1l8.8,12.7l8.9-12.7h17.5l-17,22.5l18.7,24.9h-18.3l-10.1-14.7
		L170.4,68.9z"/>
</g>
<g id="Layer_2_1_" class="st0">
	<g class="st2">
		<path d="M18.1,64.9c-5.4-2.9-9.6-7-12.6-12.2c-3.1-5.2-4.6-11.2-4.6-18s1.5-12.8,4.6-17.9c3-5.1,7.2-9.1,12.6-11.9
			s11.5-4.2,18.2-4.2c6.8,0,12.9,1.4,18.3,4.2s9.6,6.8,12.6,11.9c3.1,5.1,4.6,11.1,4.6,17.9c0,6.7-1.5,12.7-4.6,18
			c-3.1,5.2-7.3,9.3-12.7,12.2S43,69.3,36.3,69.3C29.5,69.3,23.5,67.8,18.1,64.9z M45.9,52.4c2.8-1.7,5-4.1,6.6-7.2
			c1.6-3.1,2.4-6.6,2.4-10.4c0-3.7-0.8-7.1-2.4-10.2c-1.6-3-3.8-5.4-6.6-7.1s-6-2.6-9.7-2.6c-3.6,0-6.8,0.9-9.7,2.6
			c-2.8,1.7-5,4.1-6.6,7.1s-2.3,6.4-2.3,10.2c0,3.9,0.8,7.3,2.3,10.4c1.6,3.1,3.8,5.5,6.6,7.2s6,2.6,9.7,2.6
			C39.9,54.9,43.1,54.1,45.9,52.4z"/>
		<path d="M90,67.5H75.2V2.4h22.3l14.8,41.7h0.4l14.2-41.7h22.7v65.1h-15.4l0.4-46.1h-0.3l-16.9,46.1h-11l-16.5-46h-0.3L90,67.5z"/>
		<path d="M172.6,67.5h-17.5l18.3-24.2l-16.6-21.9h17.6l8.6,12.3l8.6-12.3h17l-16.5,21.9l18.1,24.2h-17.7l-9.8-14.3L172.6,67.5z"/>
	</g>
</g>
<g id="Layer_3" class="st0">
	<text transform="matrix(1.024 0 0 1 -1.001 69.2461)" class="st2 st3 st4">RMx</text>
</g>
<g id="Layer_4">
	<g class="st5">
		<path d="M8.6,68.7V2.2h24.3c4.4,0,8.5,0.7,12.1,2c3.6,1.3,6.6,3.5,8.9,6.4c2.3,3,3.4,6.9,3.4,11.7c0,4.4-1.2,8.1-3.5,11.3
			c-2.3,3.1-5.6,5.4-9.7,6.7l16.6,28.5h-18L28.9,42.3h-5.2v26.4H8.6z M30.9,30.6c3.1,0,5.8-0.6,7.9-1.7c2.2-1.2,3.2-3.3,3.2-6.3
			c0-2.8-1-4.8-3-5.8c-2-1.1-4.4-1.6-7.3-1.6h-8.2v15.5H30.9z"/>
		<path d="M81.8,68.7H67.3V2.2h21.9l14.5,42.7h0.4l13.9-42.7h22.2v66.5h-15l0.4-47.1h-0.3l-16.6,47.1H97.8L81.7,21.6h-0.3L81.8,68.7
			z"/>
		<path d="M162.6,68.7h-17.1L163.4,44l-16.2-22.4h17.2l8.4,12.6l8.5-12.6h16.6L181.7,44l17.7,24.7h-17.4l-9.6-14.6L162.6,68.7z"/>
	</g>
</g>
</svg>
