<?xml version="1.0"?>
<svg xmlns="http://www.w3.org/2000/svg" xmlns:xlink="http://www.w3.org/1999/xlink" xmlns:svgjs="http://svgjs.com/svgjs" version="1.1" width="512" height="512" x="0" y="0" viewBox="0 0 512 512" style="enable-background:new 0 0 512 512" xml:space="preserve" class=""><g><g xmlns="http://www.w3.org/2000/svg"><path d="m30 101v201.56l169.63-118.29 60.37 48.46v-34.93l96.58-96.8zm90 90h-30v-30h30z" fill="#535658" data-original="#000000" style=""/><path d="m482 118.88v80.71l-95.17 91.74-39.81-37.16z" fill="#535658" data-original="#000000" style=""/><path d="m482 241.26v128.74h-452v-30.87l168.37-117.4 62.8 49.27h59.92l66.08 61.67z" fill="#535658" data-original="#000000" style=""/><path d="m0 400h512v64h-512z" fill="#535658" data-original="#000000" style=""/><g><g><path d="m435.39 125.34-115.39 115.66h-30v-30.8l115.41-114.84z" fill="#535658" data-original="#000000" style=""/><path d="m483 78c-1.755 1.739-25.634 25.249-26.41 26.1-.887-.887-28.206-28.205-29.91-29.91l26.32-26.19z" fill="#535658" data-original="#000000" style=""/></g></g></g></g></svg>
