<?xml version="1.0" encoding="UTF-8" standalone="no"?>
<svg width="180px" height="27px" viewBox="0 0 180 27" version="1.1" xmlns="http://www.w3.org/2000/svg" xmlns:xlink="http://www.w3.org/1999/xlink">
    <!-- Generator: Sketch 41.2 (35397) - http://www.bohemiancoding.com/sketch -->
    <title>XPO-Logo</title>
    <desc>Created with Sketch.</desc>
    <defs></defs>
    <g id="Symbols" stroke="none" stroke-width="1" fill="none" fill-rule="evenodd">
        <g id="_nav_white" transform="translate(-170.000000, -29.000000)">
            <g id="optionB">
                <g id="XPO-Logo" transform="translate(170.000000, 29.000000)">
                    <g id="Layer_1">
                        <g id="Group">                           
                            <path d="M22.0495238,0.531321429 L14.5685714,0.531321429 C14.5685714,0.531321429 11.5161905,5.56103571 11.1771429,6.34307143 C10.7152381,5.28042857 7.36952381,0.531321429 7.36952381,0.531321429 L0,0.531321429 L7.4752381,10.3111071 L0.00666666667,21.3377143 L7.54666667,21.3377143 L9.26380952,18.0591429 C9.91238095,16.9965 10.4980952,15.8702143 10.9,14.9666786 C11.3628571,16.119 11.7028571,16.7766429 12.412381,17.9646429 L14.4180952,21.3377143 L22.0495238,21.3377143 L14.6647619,10.3101429 L22.0495238,0.531321429 L22.0495238,0.531321429 Z" id="Shape" fill="#CC0000"></path>
                            <path d="M37.0171429,1.81189286 C35.5971429,0.844714286 34.0542857,0.531321429 30.6904762,0.531321429 L22.0495238,0.531321429 L22.0495238,21.3386786 L28.5619048,21.3386786 L28.5619048,14.9348571 L32.232381,14.9348571 C34.9485714,14.9348571 36.6457143,14.3418214 37.972381,13.0284643 C39.2990476,11.6852143 40.0095238,9.936 40.0095238,7.90521429 C40.0095238,5.28139286 38.9285714,3.09342857 37.0171429,1.81189286 L37.0171429,1.81189286 Z M31.0809524,10.0285714 L28.5619048,10.0285714 L28.5619048,5.65457143 L30.9580952,5.65457143 C32.8095238,5.65457143 33.6733333,6.37392857 33.6733333,7.87435714 C33.6733333,9.37092857 32.9019048,10.0613571 31.0809524,10.0285714 L31.0809524,10.0285714 Z" id="Shape" fill="#CC0000"></path>
                            <path d="M50.3933333,0 C44.0057143,0 39.8095238,4.34314286 39.8095238,10.9359643 C39.8095238,17.5278214 44.0371429,21.8391429 50.3314286,21.8391429 C56.5019048,21.8391429 60.667619,17.496 60.667619,10.9668214 C60.667619,4.43667857 56.5333333,0 50.3933333,0 L50.3933333,0 Z M50.3314286,16.7158929 C47.7095238,16.7158929 46.3809524,14.5587857 46.3809524,10.8424286 C46.3809524,7.31121429 47.7704762,5.12325 50.3009524,5.12325 C52.8,5.12325 54.127619,7.18682143 54.127619,10.6862143 C54.1266667,14.6224286 52.892381,16.7158929 50.3314286,16.7158929 L50.3314286,16.7158929 Z" id="Shape" fill="#CC0000"></path>                            
                        </g>
                    </g>
                </g>
            </g>
        </g>
    </g>
</svg>