<?xml version="1.0"?>
<svg xmlns="http://www.w3.org/2000/svg" xmlns:xlink="http://www.w3.org/1999/xlink" xmlns:svgjs="http://svgjs.com/svgjs" version="1.1" width="512" height="512" x="0" y="0" viewBox="0 0 512.00533 512" style="enable-background:new 0 0 512 512" xml:space="preserve" class=""><g><path xmlns="http://www.w3.org/2000/svg" d="m202.667969 352.003906c0-78.742187 61.3125-143.277344 138.664062-148.800781v-139.199219c0-35.285156-28.714843-63.99999975-64-63.99999975h-213.332031c-35.285156 0-64 28.71484375-64 63.99999975v298.664063c0 35.285156 28.714844 64 64 64h158.871094c-12.757813-21.992188-20.203125-47.445313-20.203125-74.664063zm-101.546875-92.160156c-14.082032-14.082031-38.828125-14.082031-52.90625 0l-5.546875 5.523438v-201.363282c0-11.777344 9.554687-21.335937 21.332031-21.335937h213.332031c11.777344 0 21.335938 9.558593 21.335938 21.335937v137.363282l-16.214844-16.210938c-14.589844-14.59375-38.335937-14.59375-52.90625 0l-101.546875 101.546875zm0 0" fill="#535658" data-original="#000000" style="" class=""/><path xmlns="http://www.w3.org/2000/svg" d="m505.75 475.585938-57.238281-57.238282c12.695312-18.730468 20.117187-41.320312 20.117187-65.597656 0-64.683594-52.628906-117.335938-117.332031-117.335938s-117.335937 52.652344-117.335937 117.335938 52.632812 117.332031 117.335937 117.332031c25.023437 0 48.191406-7.933593 67.261719-21.355469l57.046875 57.046876c4.136719 4.136718 9.601562 6.230468 15.0625 6.230468 5.460937 0 10.921875-2.09375 15.082031-6.25 8.339844-8.34375 8.339844-21.824218 0-30.167968zm-154.476562-48.191407c-41.171876 0-74.664063-33.492187-74.664063-74.667969 0-41.171874 33.492187-74.664062 74.664063-74.664062 41.175781 0 74.667968 33.492188 74.667968 74.664062 0 41.175782-33.492187 74.667969-74.667968 74.667969zm0 0" fill="#535658" data-original="#000000" style="" class=""/><path xmlns="http://www.w3.org/2000/svg" d="m149.332031 149.335938c0 23.5625-19.101562 42.667968-42.664062 42.667968-23.566407 0-42.667969-19.105468-42.667969-42.667968s19.101562-42.667969 42.667969-42.667969c23.5625 0 42.664062 19.105469 42.664062 42.667969zm0 0" fill="#535658" data-original="#000000" style="" class=""/></g></svg>
